<svg id="svg" xmlns="http://www.w3.org/2000/svg" xmlns:xlink="http://www.w3.org/1999/xlink" version="1.1" width="189" height="267" preserveAspectRatio="xMidYMid meet" buffered-rendering="static" style="background: rgb(255, 255, 255);" viewBox="-0.02 31.5 189.02 235.52"><g><path d="M 134.20338104196503 34 L 133.10212193974954 31.5 L 132.30106096987475 33.72300962960685 C 131.65577060149292 35.513743115261086 131.23759933075127 35.70819847802488 130.15058661525583 34.72300962960685 C 129.06868743472467 33.74245531540443 128.59701571850954 33.896489626140344 127.77134799150346 35.5 L 126.74152275249524 37.5 L 124.89299722183642 35 C 123.87630817997409 33.625 123.03446556066265 33.0625 123.02223584558881 33.75 C 123.01000613051497 34.4375 122.55 34.775 122 34.5 C 121.45 34.225 120.96447368421053 35.0125 120.92105263157895 36.25 C 120.87763157894736 37.4875 120.65263157894736 37.9375 120.42105263157895 37.25 C 120.18947368421053 36.5625 119.325 36 118.5 36 C 117.46522668486071 36 117.23261334243035 36.519411683313365 117.75 37.67470514982029 C 118.38725228695262 39.09765139874602 118.12417428984203 39.22171820800941 116 38.49999999999999 C 113.87582571015797 37.77828179199057 113.61274771304738 37.90234860125397 114.25 39.3252948501797 C 114.84100798726418 40.64498034332135 114.47002662421392 41 112.5 41 C 110.82515359813989 41 110.21135055298 41.412576799069946 110.6403370034877 42.25 C 111.00117702938351 42.95439476387131 110.23732969880335 44.25414173555376 108.8903370034877 45.22776415441119 C 107.30849847322636 46.37113594954479 107.00735428019985 46.95730493134578 108 46.96078091807219 C 109.11262255885002 46.96467703243497 108.98349674513337 47.3528893207767 107.5 48.4640136070587 C 105.78702958617532 49.747011385602555 105.71527218963149 50.092255300878826 107 50.869646558536985 C 108.31352230590734 51.66446142057259 108.28148145636438 52.070858867655815 106.74226797178994 54.13864971513928 C 105.7755153562744 55.43739237181268 104.9880153562744 56.8375 104.99226797178994 57.25 C 104.99652058730547 57.6625 105.675 58 106.5 58 C 107.66666666666667 58 107.77777777777777 58.44444444444444 107 60 L 106 62 L 107 62 C 107.55 62 106.37589622494816 63.6875 104.39088049988482 65.75 C 101.47559710644715 68.77908028538327 100.9151844222224 69.98061314307782 101.47578812103353 72 C 101.85750303772869 73.375 102.69410681278052 74.8400774963371 103.33490762114872 75.255727769638 C 103.97570842951693 75.6713780429389 105.38155248440201 75.8963780429389 106.45900552089336 75.755727769638 C 107.606336112897 75.60595570917094 108.66845282329336 74.46417478124366 109.0224609455247 73 C 109.49204204328653 71.05781631009499 109.79723322866441 71.72719588220899 110.3902552348576 76 C 110.8100946469348 79.025 111.34403970585069 85.2125 111.57679981022625 89.75 C 111.94610446955197 96.94934327313524 111.7544234038546 98.22286657842585 110.07167568017638 99.75 C 109.0110973042734 100.7125 107.4360973042734 102.0625 106.57167568017638 102.75 C 105.29840859211862 103.76266684987681 104.71520021985216 103.71520021985216 103.5 102.5 C 102.55510301086021 101.55510301086021 100.50466079922127 101.0925171684767 97.95929267670107 101.25 C 95.2388071990101 101.41831740460417 93.61015843975457 101.00990442762503 92.97460545121814 100 C 92.45541650501693 99.175 91.97887878909367 96.925 91.91563274916643 95 C 91.85238670923921 93.075 91.48728161232322 90.375 91.10428808935312 89 C 90.72129456638302 87.625 89.6411505777908 86.3875 88.70396811470374 86.25 C 87.76678565161669 86.1125 87 86.45 87 87 C 87 87.55 86.325 88 85.5 88 C 84.675 88 83.73685796607246 88.7875 83.41523992460549 89.75 C 83.0936218831385 90.7125 82.57768232619935 93.75 82.26870757585183 96.5 C 81.9597328255043 99.25 81.36155359409096 102.625 80.93942039493331 104 C 80.44266508859249 105.61806403187805 80.1415835608874 105.88264482231463 80.08595274368696 104.75 C 80.03867873465913 103.7875 79.325 101.875 78.5 100.5 C 77.675 99.125 77.45 98 78 98 C 78.55 98 78.775 97.1 78.5 96 C 78.225 94.9 78.675 93.325 79.5 92.5 C 80.57299978748672 91.42700021251328 80.64416648957227 90.99134365643876 79.75 90.96959131409929 C 79.0625 90.9528665368539 79.2875 90.5028665368539 80.25 89.96959131409929 C 81.46340144765011 89.29730359743812 82 87.77348902320027 82 85 C 82 82.8 81.55 79.875 81 78.5 L 80 76 L 81 76 C 81.55 76 82.19673045882118 76.5625 82.43717879738038 77.25 C 82.75950879096231 78.1716194710075 83.2192415315518 78.08288556057414 84.18717879738038 76.91222909628043 C 84.90923045882117 76.03895509923466 85.95 75.4780739853873 86.5 75.66582662106407 C 87.05 75.85357925674084 88.0625 75.10557616341465 88.75 74.00359752478364 C 89.78459666039976 72.34526527844254 89.7415159924797 71.9138386641599 88.5 71.5 C 87.675 71.225 85.875 71.9 84.5 73 C 83.125 74.1 82 74.55 82 74 C 82 73.45 81.325 72.775 80.5 72.5 C 79.42716567346854 72.14238855782284 79.16786134537585 72.49835995237996 79.58944815490266 73.75 C 79.91364464009912 74.7125 78.45114464009912 73.59333536408522 76.33944815490266 71.26296747574494 C 73.960767488891 68.63796853316549 70.7879170560968 66.44245479139191 68 65.49232892510489 C 65.525 64.64884561059314 62.375 63.99044017136929 61 64.02920572682967 C 58.88105678024694 64.08894537112258 59.14779652641979 64.39693657918247 62.75 66.04984427746973 C 65.0875 67.12242992486138 67 68.45 67 69 C 67 69.55 67.5625 69.98533236900425 68.25 69.96740526445389 C 68.9375 69.94947815990352 70.27612480684977 70.73697815990353 71.22472179299949 71.71740526445389 C 72.17331877914921 72.69783236900425 72.9608187791492 73.8375 72.97472179299949 74.25 C 72.98862480684977 74.6625 71.5375 74.57347648719667 69.75 74.05216997154815 C 67.9625 73.53086345589963 65.15 73.34851477470175 63.5 73.6469506799973 L 60.5 74.18956141689829 L 60.742965271716386 77.84478070844915 C 60.8765961711604 79.85515131880211 60.70422289616476 80.825 60.35991354950386 80 C 59.902608489136554 78.9042508474956 59.41039282190084 79.3085016949912 58.5335141605413 81.5 L 57.33313176550766 84.5 L 56.66656588275383 80.75 C 56.299954647239225 78.6875 55.6625 76.79450659101755 55.25 76.54334798003902 C 54.8375 76.29218936906047 53.52026278930629 77.97968936906047 52.32280619845842 80.29334798003902 C 51.12534960761056 82.60700659101755 49.24236408380042 85.4 48.13839392332478 86.5 L 46.13117544973271 88.5 L 45.565587724866354 81.75 L 45 75 L 40.75 75.50725388895272 L 36.5 76.01450777790544 L 37.75 75.50725388895272 C 38.4375 75.22826425002873 38.985332369004254 74.2125 38.967405264453895 73.25 C 38.949478159903535 72.2875 39.86240718418537 70.6 40.99613642952464 69.5 C 42.56153115790058 67.98117686979289 42.749814400483814 67.31955867382767 41.778731165070745 66.75 C 40.773136691163614 66.16019983243419 40.820399664868376 65.78967102863673 42 65.01531277451707 C 42.825 64.47373480050146 44.7375 64.02373480050146 46.25 64.01531277451707 C 47.84523687716618 64.00643004629839 49.40714483408797 64.73484925998515 49.96959131409937 65.75 C 50.50286653685402 66.7125 50.95286653685402 66.9375 50.96959131409937 66.25 C 50.98631609134472 65.5625 51.3375 64.27815551808607 51.75 63.395901151302354 C 52.35331124671192 62.10553998295978 52.13543928606545 61.9588512296717 50.636049769855624 62.645901151302354 C 49.334633101886425 63.24223599963268 48.522938417450284 63.0473053252085 47.94650625531139 62 C 47.47620907536049 61.14552869644626 46.019014212669106 60.607588116074375 44.56045648545577 60.75 C 42.65128367134132 60.93640941810173 40.91896010772942 59.86212242395274 37.75 56.52654834222306 C 35.21489503034353 53.85815551183522 32.592114395700484 52.04238430323619 31.25 52.02654834222306 C 29.995368435708478 52.011744614164094 27.983770960268433 53.216561421421474 26.702845240648465 54.75 C 25.43941012300512 56.2625 23.75191012300512 59.19383486736535 22.952845240648465 61.2640774830341 C 22.153780358291808 63.334320098702854 21.1625 65.02182009870286 20.75 65.0140774830341 C 20.3375 65.00633486736534 20.225 65.45 20.5 66 C 20.775 66.55 20.74822421887653 68.4625 20.440498264170067 70.25 C 20.132772309463604 72.0375 19.570272309463604 73.19530750913201 19.190498264170067 72.8229055758489 C 18.81072421887653 72.4505036425658 16.25 72.78811105658252 13.5 73.57314427366381 C 10.75 74.35817749074512 7.262499999999999 74.77536998161312 5.75 74.50023869781492 C 3.597718547324967 74.1087279810086 2.89132390048637 74.43470439805452 2.5 76 C 2.225 77.1 1.5499999999999998 77.775 1 77.5 C 0.44999999999999996 77.225 -0.0075000000000763345 77.5625 -0.01666666666683625 78.25 C -0.025833333333596165 78.9375 0.5366666666664037 80.04382041113101 1.2333333333331638 80.70848980251336 C 2.2476144018904063 81.67618585111884 2.25093526502346 82.22412826806723 1.25 83.45848980251336 C 0.1932549332669904 84.76167643972347 0.6849403941267056 85.50246282649418 4.430290488240928 88.25 C 7.306072832767526 90.35963426540964 8.621879449602563 91.96800538949482 8.180290488240928 92.83379798228026 C 7.708399943262233 93.75900077083786 6.351226350005059 93.98875550083685 3.75 93.58379798228026 L 0 93 L -0.016983236338930396 124.25 C -0.03079910064885827 149.67187784877981 0.2023257853999496 155.1924570182658 1.2330167636610696 153.8509751632124 C 1.9298575436474814 152.94401150297924 3.5124999999999993 151.93151150297925 4.75 151.6009751632124 C 6.119321172356626 151.23522937874696 7.587119218428915 151.5871192184289 8.5 152.5 C 9.325 153.325 10 154.9 10 156 C 10 157.1 9.6625 157.9821423799349 9.25 157.96031639985537 C 8.8375 157.93849041977583 7.897071707958801 159.17599041977581 7.1601593510195585 160.71031639985537 C 6.154039778156797 162.80515900247053 6.091770978435795 164.060419197489 6.9101593510195585 165.75 C 7.509571707958802 166.9875 8.5625 167.97996359201855 9.25 167.9554746489301 C 10.13760022103482 167.92385807976908 10.065120265241783 168.37164659643614 9 169.5 C 8.127585774046645 170.42420695887193 5.931035564883386 171.07042171752917 3.75 171.04452535106986 L 0 171 L 0 175 C 0 178.16987597308437 0.7163617059909733 179.7782412752334 3.4518297640541604 182.75 C 6.519537846674616 186.0826977563098 7.131581137420234 186.36089925210328 8.95182976405416 185.25 L 11 184 L 10.412538947866913 188.25 C 10.089435369193716 190.5875 9.189435369193717 194.6375 8.412538947866913 197.25 C 7.63564252654011 199.8625 6.6625 201.81797117626564 6.25 201.59549150281254 C 5.8375 201.37301182935943 5.352020256571821 201.71051182935943 5.171156125715157 202.34549150281254 C 4.990291994858493 202.98047117626564 4.540291994858494 209.5446405479023 4.171156125715157 216.932534550894 C 3.6088984485362516 228.18557298090658 3.7433825253853135 230.59720794059993 5 231.7957727139996 C 6.330320871856082 233.06463596517628 6.302041017165429 233.3267863097816 4.75 234.11323816310562 C 3.2810056519326807 234.857608521094 3.200718322809058 235.30627544316567 4.25 236.90737097938637 C 5.000378631808385 238.05237132007673 6.081559982629935 238.55199268826834 6.955001776482504 238.15737097938637 C 8.100762194549063 237.63971549583954 8.263066884096016 238.03134189149162 7.718656459775609 240 C 7.338415558521438 241.375 7.0402665800848965 242.95 7.05610317436107 243.5 C 7.071939768637243 244.05 6.139087424551109 243.375 4.98309796528077 242 L 2.8812989484256093 239.5 L 4.440649474212805 242.25 C 5.579298443704612 244.25806977925745 5.730207192457252 245.53958561508549 5 247 C 4.45 248.1 4.1125 250.2375 4.25 251.75 L 4.5 254.5 L 7.5 249.18811832244427 L 10.5 243.87623664488854 L 15.695513412881773 244.18811832244427 L 20.891026825763547 244.5 L 20.695513412881773 242.5 C 20.52021523167488 240.7067912515762 21.068675941834538 240.51167561251444 26 240.61292172589944 C 29.025 240.67502867514412 35.1 241.86666513545012 39.5 243.26100274880164 C 43.9 244.65534036215317 51.325 247.2539818934609 56 249.03576170726325 C 60.675 250.8175415210656 66.4125 253.5634050607596 68.75 255.13768068436104 L 73 258 L 78 254 C 80.75 251.8 83.225 250.45 83.5 251 C 83.775 251.55 82.3125 254.0217691059941 80.25 256.49282023554247 C 78.1875 258.9638713650908 75.45797914916297 261.5513713650908 74.18439810925103 262.24282023554247 C 72.24764470616394 263.29431669390726 71.10239628318251 263.19512685815516 67.18439810925103 261.63655103112205 C 64.60797914916297 260.61165409823917 56.875 257.8093357297385 50 255.40917687889836 C 43.125 253.0090180280582 37.38534052048414 251.14757006405327 37.245201156631424 251.2726258477763 C 37.105061792778706 251.39768163149935 39.130061792778704 253.34037667791196 41.745201156631424 255.5897259509155 C 44.360340520484144 257.839075223919 47.625 261.32350035342154 49 263.33289290536555 L 51.5 266.9863339089001 L 62.5 266.9827220841248 C 68.55 266.98073558049833 76.30299750910159 266.4213104509958 79.72888335355907 265.7395551296747 C 84.73187172216062 264.74395454703426 86.20793281775458 264.7492903183669 87.22888335355907 265.76666666666614 C 87.96415757454615 266.4993668080662 90.92392698969567 267.0263074580001 94.25 267.01666666666614 L 100 267 L 99.5 265 C 99.16666666666667 263.6666666666667 99.5 263 100.5 263 C 101.52163184411052 263 101.76081592205526 262.4884334612557 101.25 261.3959011513013 C 100.6974053634486 260.21401259091573 100.89481072689719 259.95270076333304 102 260.4031020334697 C 102.825 260.73931688544656 104.0625 262.361161367361 104.75 264.0072008821684 L 106 267 L 130.25 266.9920055134319 L 154.5 266.98401102686375 L 162.5 256.29629489043646 C 168.1482485484491 248.75043524621003 171.67587572577546 245.00396994756923 174.5 243.5518688715385 C 177.3467766717302 242.0881204430549 178.57522064652895 240.77509225474162 178.7609057402327 238.9975794945339 C 178.90440389736065 237.62391077254026 181.26690389736066 233.9125 184.0109057402327 230.75 L 189 225 L 188.98437905105882 196.75 C 188.97265949177356 175.55554177244218 188.60692556349994 167.0014778536406 187.52000057992777 162.5 C 186.72318394272332 159.2 186.09073968553633 155.6 186.11456889728998 154.5 C 186.13839810904366 153.4 186.34736842105264 153.0625 186.57894736842104 153.75 C 186.81052631578947 154.4375 187.45 155 188 155 C 188.64734299516908 155 189 142.83333333333334 189 120.5 L 189 86 L 186.25 86.07028526261038 C 184.7375 86.10894215704609 182.825 86.44644215704608 182 86.82028526261038 C 180.9962439798945 87.27513043568322 180.3936205012492 89.31956125961317 180.17844597699673 93 C 179.9304180582761 97.24237750230033 179.3587714684126 98.87781946664116 177.67844597699673 100.15232974944965 C 176.48030068964852 101.06111111164697 174.90609895866933 101.51111111164697 174.1802199081541 101.15232974944965 C 173.3582429257164 100.74604991364988 172.6800659058661 101.25437281177953 172.38223087869653 102.5 C 172.11921596301013 103.6 171.0256170043408 104.6125 169.95201097054246 104.75 C 168.8784049367441 104.8875 168 104.55 168 104 C 168 103.45 168.45 102.775 169 102.5 C 169.55 102.225 169.97996359201855 100.5375 169.95547464893014 98.75 L 169.91094929786024 95.5 L 171.5342032595687 97 L 173.15745722127716 98.5 L 174.08964008944923 97 C 174.60234066694386 96.175 174.9044127921565 93.7 174.76091147881064 91.5 L 174.5 87.5 L 170.5 87.81760629422249 C 168.3 87.99228975604485 166.3875 88.55478975604485 166.25 89.06760629422249 C 166.1125 89.58042283240012 165.55 90 165 90 C 164.44796788186392 90 164.23613842380252 88.76808832487421 164.52713248731132 87.25 C 164.81705535533254 85.7375 164.70455535533256 83.99389461437443 164.27713248731132 83.3753213652765 C 163.84970961929008 82.75674811617858 161.7 81.2906763695921 159.5 80.1173841506399 C 157.3 78.94409193168768 155.641547142236 77.87519731731325 155.81454920496884 77.74206278536339 C 155.98755126770172 77.60892825341352 155.87505126770174 76.7125 155.56454920496884 75.75 C 155.2203298393092 74.68298248478156 154.5205598721852 74.2927067791921 153.77153478695107 74.75 C 152.85662743258112 75.3085673151252 152.77676309611147 74.98951284033386 153.45864019221972 73.5 C 153.96220403229438 72.4 154.40251337816642 69.63348001751072 154.43710540526865 67.3521778166905 C 154.47353076298012 64.94996968742295 154.9008437962915 63.47699208155268 155.45246070369913 63.8521778166905 C 156.03228117163957 64.24654638224905 156.13009104303674 63.424091414631114 155.70246070369913 61.75 C 155.21308954618996 59.834205029457934 155.37918410429907 59.013506644291226 156.25 59.04452535106988 C 157.20470374192766 59.07853216649153 157.22556088074933 58.78323590841919 156.3382890413081 57.79452535106988 C 155.69934801402752 57.08253640798145 155.15877884494216 55.375 155.13702422111837 54 C 155.11526959729457 52.625 154.96303952870593 50.45475820902282 154.79873517981028 49.177240464495156 C 154.63443083091462 47.899722719967485 153.7300296353215 46.32472271996749 152.7889547451589 45.677240464495156 C 151.8478798549963 45.029758209022816 151.0514553373575 43.6 151.01912248373935 42.5 C 150.97161902145018 40.883878851671795 150.4484596115886 40.59596971291795 148.29347397466825 41 C 146.23464809179006 41.38600165043326 145.74420756008672 41.15800495129978 146.14238786874085 40 C 146.42606433685174 39.175 146.06007653061224 37.9375 145.32908163265307 37.25 L 144 36 L 142.48373238566444 37.25 C 141.2208536470217 38.29110805268051 140.56532237823777 37.99865932643322 138.56106281177867 35.5 L 136.15466085222846 32.5 L 135.7296504982045 34.5 L 135.30464014418055 36.5 L 134.20338104196503 34 Z " class="odd" fill="#000058"></path><path d="M 137 37 C 137.53315594803124 37.825 137.97626519949856 38.1625 137.98468722548296 37.75 C 137.99310925146733 37.3375 139.0125 37.91852940860111 140.25 39.04117646355802 L 142.5 41.082352927116034 L 143.10203569901117 39.29117646355802 C 143.61814759503264 37.755640477512074 143.82482705590286 37.85680526557985 144.55016077456418 40 C 145.0155099316622 41.375 145.30709386710717 42.8375 145.198125075553 43.25 C 145.08915628399885 43.6625 146.2375 43.772308066172194 147.75 43.4940179248271 L 150.5 42.988035849654196 L 149.25 43.4940179248271 C 148.5625 43.772308066172194 148 44.45 148 45 C 148 45.55 148.5625 46.002845183079046 149.25 46.00632262906454 C 149.9375 46.009800075050045 151.32269693405394 47.47230007505004 152.32821540900875 49.25632262906454 C 153.33373388396356 51.04034518307905 153.55873388396355 51.93 152.82821540900875 51.233333333333334 C 152.09769693405394 50.53666666666667 151.1625 49.97416666666667 150.75 49.983333333333334 C 150.3375 49.9925 150.73326507623963 51.6875 151.62947794719918 53.75 L 153.25895589439838 57.5 L 151.46082344105108 56 L 149.66269098770377 54.5 L 150.29750854911006 57.5 C 150.84214188026615 60.07381032410126 150.5464592264468 60.68930002584499 148.21616305525816 61.8325054773732 C 146.37373207841472 62.736372188752426 145.4195802994298 62.81679188932262 145.25 62.0825054773732 C 145.1125 61.487127464817945 144.325 61 143.5 61 C 142.675 61 141.99310925146733 60.4375 141.98468722548296 59.75 C 141.97429751533915 58.9018756012966 141.62679294054138 58.98225072155593 140.90380369561515 60 C 140.09884143800645 61.13314238435123 140.00562402288213 60.76628476870246 140.52265821376608 58.5 L 141.20708348726774 55.5 L 139.559016392564 57 C 138.65257949047694 57.825 137.89998074591946 58.275 137.88657473799182 58 C 137.87316873006418 57.725 137.66820513804564 56.2625 137.43110008906172 54.75 C 137.19399504007777 53.2375 137.45 51.775 138 51.5 C 138.55 51.225 138.98502882188242 50.4375 138.96673071529426 49.75 C 138.94843260870607 49.0625 138.02933078772554 49.625 136.92428222422637 51 C 135.31253029922397 53.00548552351471 134.92349957519943 53.153839866460295 134.9575515089321 51.75 C 134.98089817901945 50.7875 134.6625 50.006890748532676 134.25 50.015312774517064 C 133.8375 50.02373480050145 132.825 50.46684405196877 132 51 C 130.75878669183058 51.80213364609219 130.84504892244075 51.967223932994216 132.5 51.95690944770517 C 133.6 51.95005369591178 134.12515876952654 52.29444444444445 133.66701948783674 52.72222222222223 C 133.20888020614697 53.150000000000006 131.74667315817416 53.5 130.41767049234164 53.5 C 129.08866782650915 53.5 128.0010090569826 52.9375 128.0006510045049 52.25 C 128.00021806554588 51.418709748249654 127.24632245315061 51.22804986453809 125.75 51.68081130631487 C 124.5125 52.055257524788054 122.825 52.991710227277004 122 53.761817311845874 C 121.175 54.53192439641474 120.275 54.78805930857305 120 54.331006005530995 C 119.725 53.87395270248895 118.9375 53.3875 118.25 53.25 C 117.5625 53.1125 116.95514398859223 53.5625 116.90031997464938 54.25 C 116.84549596070653 54.9375 116.44035197211431 54.375 116 53 L 115.19936005070123 50.5 L 115.09968002535061 52.75 C 115.01385059971095 54.6873611414121 114.51293081966234 54.96526234904579 111.4946594907952 54.75 C 108.76770533802662 54.55551431839448 108.32657368767019 54.27794272642209 109.50809249729542 53.5 C 110.8647161698562 52.60676367573409 110.86266517627014 52.33985448639886 109.48888190369274 51 C 108.1059893607879 49.65126121797775 108.1298449685013 49.31294154801424 109.7254488971925 47.645012437887914 C 110.70145200373663 46.62476927872626 111.275 45.54881320179156 111 45.253998933588576 C 110.725 44.9591846653856 111.38099573061844 44.21892906833604 112.4577682902632 43.60898649570067 C 113.53454084990797 42.9990439230653 114.99704084990796 41.9375 115.7077682902632 41.25 C 116.41849573061845 40.5625 117.9 40 119 40 C 120.1 40 121.1125 39.532283615464785 121.25 38.960630256588416 C 121.3875 38.38897689771205 123.525 37.679484014678806 126 37.38397940540344 C 129.4835440259987 36.96805887356656 130.66940932900022 37.2028307813192 131.25 38.42334914881502 C 131.6625 39.29050711696676 132.5625 40.02003640798144 133.25 40.04452535106988 C 134.13760022103483 40.0761419202309 134.06512026524177 39.62835340356383 133 38.5 C 131.6611981676153 37.08171733881541 131.68806452888452 36.91573423453016 133.25 36.95547464893012 C 134.2125 36.97996359201855 135.18947368421053 37.5625 135.42105263157896 38.25 C 135.65263157894736 38.9375 135.88452232748003 38.6 135.936365406096 37.5 C 136.0148088776977 35.835596167020476 136.19328472411 35.75169712526535 137 37 Z " class="even" fill="#ffffff"></path><path d="M 112.75 46.98301676366101 C 112.6125 46.97367598367457 111.6 47.67350078311739 110.5 48.538182984645054 L 108.5 50.11033244196808 L 110.75 49.05516622098404 C 111.9875 48.47482479944282 113 47.775 113 47.5 C 113 47.225 112.8875 46.99235754364746 112.75 46.98301676366101 Z " class="odd" fill="#000058"></path><path d="M 113 50 C 112.45 50 111.775 50.45 111.5 51 C 111.225 51.55 111.675 52 112.5 52 C 113.325 52 114 51.55 114 51 C 114 50.45 113.55 50 113 50 Z " class="odd" fill="#000058"></path><path d="M 127 55.984949504469 C 127.275 56.37653029897644 128.46999317930647 56.652608803678504 129.65554039845887 56.59845729269581 C 130.84108761761124 56.54430578171311 132.07858761761122 56.1625 132.40554039845887 55.75 C 132.7324931793065 55.3375 133.675 55.675 134.5 56.5 C 135.325 57.325 136.2940603629965 59.2375 136.65346747332558 60.75 C 137.01287458365465 62.2625 138.13943616565138 65.075 139.15693765554056 67 C 140.17443914542974 68.925 141.0053787824332 71.9625 141.00347018221498 73.75 C 141.00038557580166 76.63888888888889 141.16666666666666 76.83333333333333 142.5 75.5 C 143.325 74.675 144.01368390865534 73.2125 144.03040868590074 72.25 L 144.06081737180148 70.5 L 145.03040868590074 72.25 C 145.56368390865532 73.2125 145.775 74.45 145.5 75 C 145.225 75.55 145.675 76.225 146.5 76.5 C 147.325 76.775 148.225 76.325 148.5 75.5 C 148.775 74.675 149 73.1 149 72 C 149 70.9 149.3375 70.18609579622708 149.75 70.41354621383795 C 150.1625 70.64099663144881 150.5 71.69554867164855 150.5 72.75699519205958 C 150.5 73.8184417124706 148.925 76.51355563152455 147 78.74613723440169 C 145.075 80.97871883727882 142.59359471323808 84.31166679707908 141.48576602941796 86.15268825618006 C 140.37793734559781 87.99370971528103 137.00293734559781 91.1739070572486 133.98576602941796 93.21979346055244 C 130.96859471323808 95.26567986385629 126.925 97.2119169608719 125 97.5447647872538 C 122.36667052356835 98.00008841965779 121.05656479729538 97.69804298048572 119.70921195856987 96.32497132670136 C 118.7242785357833 95.32123709701561 116.74218315764664 92.025 115.30455556271063 89 C 113.86692796777463 85.975 112.19778258641819 80.0201397906058 111.59534360414077 75.76697731245733 L 110.5 68.03395462491466 L 113 67.88079525862406 L 115.5 67.72763589233347 L 113.25 67.36381794616673 C 111.44878007236339 67.07256633075903 111.00305425246927 66.35176211769732 111.01531277451707 63.75 C 111.02373480050144 61.9625 111.4234232710077 59.825 111.90350937564207 59 C 112.38359548027644 58.175 113.27670473174376 57.8375 113.888196601125 58.25 C 114.56125694478796 58.704032842729205 115.0277361724971 58.30940996636815 115.07028526261038 57.25 C 115.12952214860883 55.77508838059039 115.25908334051732 55.814386720674726 115.89450068513476 57.5 L 116.64843084504876 59.5 L 117.32421542252439 57.75 C 117.76209008054605 56.61608739370711 118.79211236333772 56.13039962337012 120.25 56.37040092562937 C 121.4875 56.57412143472552 123.4 56.41054293002346 124.5 56.00689313740256 C 125.6 55.60324334478166 126.725 55.59336870996156 127 55.984949504469 Z " class="even" fill="#ffffff"></path><path d="M 145.5 55 C 145.225 55 145 55.45 145 56 C 145 56.55 144.55 56.775 144 56.5 C 143.45 56.225 142.8263288967844 56.5625 142.61406421507638 57.25 C 142.4017995333684 57.9375 143.3017995333684 59.0625 144.61406421507638 59.75 C 146.03802140502546 60.49601609091224 147 60.59681287272979 147 60 C 147 59.45 146.55 59 146 59 C 145.45 59 145.225 58.1 145.5 57 L 146 55 L 145.5 55 Z " class="odd" fill="#000058"></path><path d="M 143 63 C 143.55 63 144 63.225 144 63.5 C 144 63.775 143.325 64.225 142.5 64.5 C 141.675 64.775 141.225 64.55 141.5 64 C 141.775 63.45 142.45 63 143 63 Z " class="even" fill="#ffffff"></path><path d="M 48.75 65.99668340402829 C 48.6125 65.99485927624384 47.9375 66.89485927624385 47.25 67.99668340402829 C 46.247093726974406 69.60399442879334 46.25180027415487 70.2470937269744 47.27380952380952 71.25 C 47.97440476190476 71.9375 49.21190476190476 72.6190178266751 50.02380952380952 72.76448405927802 C 51.226238933839895 72.97991927342518 51.20336362122133 72.79446822860706 49.90045992154118 71.76448405927802 C 49.02071287838883 71.06901782667511 48.45821287838883 69.4875 48.65045992154118 68.25 C 48.84270696469353 67.0125 48.8875 65.99850753181273 48.75 65.99668340402829 Z " class="odd" fill="#000058"></path><path d="M 149.5 66.08822357269744 L 151.5 66.23200270095045 L 149.5 66.73168356642103 C 148.4 67.00650804242986 147.16939074853266 67.74180743471601 146.76531277451704 68.36568221594581 C 146.3558628445134 68.99785100992146 146.01154987410337 69.05731189518708 145.98753499673927 68.5 C 145.96383519297714 67.95 146.29444444444445 67.15 146.72222222222223 66.72222222222223 C 147.15 66.29444444444444 148.4 66.00914505215829 149.5 66.08822357269744 Z " class="even" fill="#ffffff"></path><path d="M 129 67.1084042760555 C 127.625 67.01822636866942 126.15 67.29444444444444 125.72222222222223 67.72222222222223 C 125.29444444444444 68.15 124.95694444444445 68.8375 124.97222222222223 69.25 C 124.9875 69.6625 125.7875 70.03552631578947 126.75 70.07894736842105 C 127.7125 70.12236842105264 127.9375 70.34736842105264 127.25 70.57894736842105 C 126.5625 70.81052631578947 125.97996359201855 71.5625 125.95547464893012 72.25 L 125.91094929786024 73.5 L 127.45547464893014 72.25 C 128.7117128608831 71.23331369967255 129.093325479869 71.27997643960705 129.5 72.5 C 129.775 73.325 130.7875 74.02003640798145 131.75 74.04452535106988 C 132.7125 74.06901429415831 134.05892049198144 73.50651429415831 134.74204553773654 72.79452535106988 C 135.42517058349162 72.08253640798145 135.65017058349162 71.15 135.24204553773654 70.72222222222223 C 134.83392049198144 70.29444444444445 133.0375 69.95694444444446 131.25 69.97222222222223 C 129.4625 69.9875 127.775 69.55 127.5 69 C 127.225 68.45 128.0125 67.83628192422498 129.25 67.63618205383327 L 131.5 67.27236410766653 L 129 67.1084042760555 Z " class="odd" fill="#000058"></path><path d="M 134 67.15789473684211 C 132.625 67.15789473684211 132.0625 67.34736842105264 132.75 67.57894736842105 L 134 68 L 135.25 67.57894736842105 C 135.9375 67.34736842105264 135.375 67.15789473684211 134 67.15789473684211 Z " class="odd" fill="#000058"></path><path d="M 141.5 67.75 C 141.775 68.4375 142.45 68.775 143 68.5 C 143.55 68.225 144 68.45 144 69 C 144 69.55 143.4375 69.8425 142.75 69.65 C 142.0625 69.4575 141.3875 68.67 141.25 67.9 C 141.08870967741936 66.99677419354839 141.17741935483872 66.94354838709677 141.5 67.75 Z " class="even" fill="#ffffff"></path><path d="M 56.5 68 C 56.225 68 55.775 68.675 55.5 69.5 C 55.225 70.325 54.325 71 53.5 71 C 52.675 71 52 71.45 52 72 C 52 72.55 52.3375 72.99310925146732 52.75 72.98468722548293 C 53.1625 72.97626519949856 54.175 72.53712316755532 55 72.00881604338687 C 55.825 71.48050891921842 56.6125 70.3623996677511 56.75 69.52412881790394 C 56.8875 68.68585796805677 56.775 68 56.5 68 Z " class="odd" fill="#000058"></path><path d="M 116.5 68 C 115.675 68 115.225 68.45 115.5 69 C 115.775 69.55 115.1 70 114 70 C 112.58805547421717 70 112.0045023804401 70.66156240849432 112.01531277451707 72.25 C 112.02769528481379 74.06943828249997 112.2161257839268 74.21295885499998 113 73 C 113.53315594803124 72.175 114.02955467318276 71.95 114.10310827811452 72.5 C 114.17666188304628 73.05 114.18355263157895 73.8375 114.11842105263159 74.25 C 114.05328947368422 74.6625 114.5625 75.0075 115.25 75.01666666666667 C 115.9375 75.02583333333334 116.95 74.57959014644322 117.5 74.0250151402442 C 118.05 73.47044013404518 118.3875 71.88794013404518 118.25 70.50834847357754 C 118.1052966897203 69.05648316373083 117.36821986167813 68 116.5 68 Z " class="odd" fill="#000058"></path><path d="M 0.6622807017543861 70.5 C 0.38486842105263164 69.95 0.1578947368421053 70.625 0.1578947368421053 72 C 0.1578947368421053 73.375 0.38486842105263164 73.825 0.6622807017543861 73 L 1.166666666666667 71.5 L 0.6622807017543861 70.5 Z " class="odd" fill="#000058"></path><path d="M 33.75 73.01531277451707 C 34.1625 73.02373480050144 35.175 73.46684405196876 36 74 C 37.16887470455965 74.75538484998694 36.89293695835936 74.97275474895652 34.75 74.98468722548293 C 33.2375 74.99310925146732 32.225 74.55 32.5 74 C 32.775 73.45 33.3375 73.00689074853268 33.75 73.01531277451707 Z " class="even" fill="#ffffff"></path><path d="M 176.5 74.94042106801766 C 176.5 74.92421159443107 176.00735559866914 75.49348570584169 175.4052346637092 76.20547464893012 C 174.80311372874925 76.91746359201855 174.01561372874926 78.2875 173.6552346637092 79.25 C 173.2719033879546 80.2738007384607 173.51871375824237 81.17351395962456 174.25 81.4181351392445 C 174.9375 81.64810946582897 178.5375 82.09810946582897 182.25 82.4181351392445 C 188.06675061384058 82.91955184827737 188.96543520792002 82.77947251900223 188.75 81.40497029110212 C 188.6074987230985 80.495795210247 185.92003064563607 78.76934267776645 182.5 77.38991671018965 C 179.2 76.05890358058163 176.5 74.95663054160423 176.5 74.94042106801766 Z " class="odd" fill="#000058"></path><path d="M 152.69398106775827 77 C 152.98882854976216 77.825 153.8353442782564 78.95 154.57512713107883 79.5 C 155.58961720683845 80.25423421824259 155.68927425065885 81.36018023615092 154.9806231407665 84 C 154.45874410371056 85.94406891787429 154.42505790785196 87.7222758688751 154.9048474930791 88 C 155.3799309343452 88.275 155.933192565284 89.3851310554152 156.1343177840542 90.46695790092268 C 156.39947172393286 91.8931870536207 157.6683509743024 92.64917886052224 160.75 93.21695790092268 C 163.0875 93.6476310554152 165 94.45 165 95 C 165 95.55 164.325 96.225 163.5 96.5 C 162.675 96.775 162.1480867346939 97.5625 162.32908163265307 98.25 C 162.51007653061225 98.9375 162.06007653061226 100.0625 161.32908163265307 100.75 L 160 102 L 157.75 100.75 C 156.5125 100.0625 155.4765564742628 99.05 155.44790327613958 98.5 C 155.41925007801635 97.95 155.07700588605977 95.925 154.68736062734718 94 C 154.29771536863458 92.075 153.0917426094982 89.6 152.00742116259963 88.5 C 150.25048128945002 86.71765596724809 149.86588507779888 86.66324197543608 148.47343846032214 88 C 147.6140694209681 88.825 146.9266020640048 89.275 146.94573322262596 89 C 146.9648643812471 88.725 147.65990078922854 86.1375 148.49025857369583 83.25 C 149.32061635816314 80.3625 150.45 78.225 151 78.5 C 151.55 78.775 152.03552631578947 78.2125 152.07894736842104 77.25 C 152.14112015125164 75.87183664725568 152.27180133337208 75.81871712621916 152.69398106775827 77 Z " class="even" fill="#ffffff"></path><path d="M 168 76.10358731828715 C 167.725 76.19641455244582 166.4875 76.43608218344156 165.25 76.63618205383327 C 164.0125 76.83628192422498 163 77.45 163 78 C 163 78.55 163.3375 79.2166322448744 163.75 79.4814049886098 C 164.1625 79.74617773234519 165.4 79.05651010134943 166.5 77.94881025306368 C 167.6 76.84111040477794 168.275 76.01076008412849 168 76.10358731828715 Z " class="odd" fill="#000058"></path><path d="M 106.66228070175438 80.5 C 106.38486842105263 79.95 106.15789473684211 80.625 106.15789473684211 82 C 106.15789473684211 83.375 106.38486842105263 83.825 106.66228070175438 83 L 107.16666666666667 81.5 L 106.66228070175438 80.5 Z " class="odd" fill="#000058"></path><path d="M 58.5 84 C 58.775 84 59.225 84.45 59.5 85 C 59.775 85.55 59.55 86 59 86 C 58.45 86 58 85.55 58 85 C 58 84.45 58.225 84 58.5 84 Z " class="even" fill="#ffffff"></path><path d="M 10.5 88 C 10.775 88 10.6625 88.67941730321057 10.25 89.50981622935683 C 9.8375 90.34021515550307 9.3875 90.79021515550308 9.25 90.50981622935683 C 9.1125 90.22941730321057 9.225 89.55 9.5 89 C 9.775 88.45 10.225 88 10.5 88 Z " class="even" fill="#ffffff"></path><path d="M 121 88.23200270095045 C 119.075 88.23200270095045 118.4 88.43779796668133 119.5 88.68932551368576 L 121.5 89.14664832642106 L 123 88.68932551368576 C 123.825 88.43779796668133 122.925 88.23200270095045 121 88.23200270095045 Z " class="odd" fill="#000058"></path><path d="M 127.5 88.05116959064327 C 126.10697415530885 88.12550503410999 125.95523061648163 88.30916288864292 127 88.656328320802 C 127.82499999999999 88.93046679197994 128.725 88.88244047619047 129 88.54960317460316 C 129.275 88.21676587301587 128.6 87.99247076023391 127.5 88.05116959064327 Z " class="odd" fill="#000058"></path><path d="M 145.23468722548296 89.25717173217805 C 145.63876519949855 89.94072727948013 145.97626519949856 91.2875 145.98468722548296 92.25 C 145.99559164969685 93.49619756877512 146.50380243122487 93.81221868433344 147.75 93.34772585035464 C 148.7125 92.9889750680497 147.7 94.20112535442182 145.5 96.0413931534038 C 143.3 97.88166095238579 137.13818416568026 103.6876843197262 131.80707592373392 108.94366730304915 C 126.47596768178758 114.19965028637212 121.91575038953498 118.05 121.67325971872815 117.5 C 121.43076904792132 116.95 120.8743176603876 113.35 120.43670107976433 109.5 C 119.83521718298668 104.2083517738386 119.92888762507948 102.68303769005414 120.82051728477009 103.25 C 121.46923277814655 103.6625 122 105.125 122 106.5 C 122 108.55159747202497 122.49324278077255 109.00666513192387 124.75 109.03716042789704 C 127.00889169041784 109.0676845667294 128.28612498715611 107.95152931767905 131.90196932631557 102.78716042789704 C 134.3230524557891 99.32922219255366 138.1480524557891 94.59072727948012 140.40196932631557 92.25717173217805 C 143.25963223190615 89.29853771472082 144.72237079872806 88.39051539849545 145.23468722548296 89.25717173217805 Z " class="even" fill="#ffffff"></path><path d="M 75.5 89 C 75.775 89 75.73824689783078 90.9125 75.41832643962394 93.25 C 74.93988689234199 96.7457203051032 75.2504726490642 98.01001102579478 77.16832643962394 100.37366460252436 C 79.13941284385425 102.80292456610181 79.30669080233105 103.5374995172438 78.25 105.12366460252436 C 77.5625 106.15564907113595 77 107.675 77 108.5 C 77 109.46232516705436 76.01426280626633 110.01089999007452 74.25 110.03040868590074 C 71.93157512527371 110.05604514182802 71.77463871608327 110.21298155101847 73.25 111.03040868590074 C 74.62537691777749 111.79243926480912 74.89718980438563 112.90979891396894 74.5197363673969 116.25 L 74.0394727347938 120.5 L 75.06796238932728 117 C 75.63363169932069 115.075 76.18725033399208 112.9375 76.29822602193038 112.25 C 76.40920170986867 111.5625 76.8375 111 77.25 111 C 77.6625 111 78 110.1 78 109 C 78 107.9 78.45 106.775 79 106.5 C 79.55 106.225 79.775 106.675 79.5 107.5 C 79.225 108.325 79.5625 109.72971033799847 80.25 110.62157852888546 C 81.24391911110837 111.91095284090329 82.57553973334484 112.1158175520166 86.75 111.62157852888546 C 90.91588414391826 111.12835488361232 92.10324912915064 111.30974738745192 92.5 112.5 C 92.775 113.325 94.125 114 95.5 114 C 96.875 114 97.97996359201855 114.5625 97.95547464893012 115.25 L 97.91094929786024 116.5 L 99.45547464893012 115.25 C 100.30496359201855 114.5625 100.775 113.55 100.5 113 C 100.225 112.45 100.675 112 101.5 112 C 102.325 112 103.7875 111.70890108566091 104.75 111.35311352369092 C 105.7125 110.99732596172093 104.5875 112.12232596172093 102.25 113.85311352369092 C 99.9125 115.58390108566091 96.92493431681476 118.9125 95.61096514847725 121.25 C 94.29699598013974 123.5875 92.65239288675971 127.3 91.95629160763278 129.5 C 90.87418852773412 132.91994311339695 90.57826092244677 133.2099715566985 89.9156117217659 131.5 C 89.26030585904283 129.80897798557243 89.12971222579236 129.77035573737587 89.07028526261038 131.25 C 89.03162836817467 132.2125 88.55 132.775 88 132.5 C 87.45 132.225 86.1 132.45 85 133 C 83.9 133.55 83 134.9 83 136 C 83 137.16666666666666 83.83333333333333 138.20833333333334 85 138.5 L 87 139 L 88 138.5 C 88.55 138.225 88.99513671761396 138.5625 88.98919270580882 139.25 C 88.98214837055555 140.0647662968003 87.85054074223628 140.37574834785445 85.73919270580882 140.14314674153192 C 83.48764940841491 139.89510019560828 82.27132047285028 140.2762327408578 81.75 141.39314674153192 C 81.3375 142.27691603368936 80.4375 142.70725336857348 79.75 142.3494519301633 C 78.84571777483733 141.8788286852295 79.05314843973973 141.293942777233 80.5 140.2346998456353 C 81.83399925340544 139.25807631441958 82.0837495333784 138.64220813127983 81.25 138.385247915472 C 80.41784480160386 138.12877907104695 80.0148837491873 135.91077599198067 80.04452535106988 131.75 L 80.08905070213976 125.5 L 78.35256692369845 127 C 77.3603402389116 127.85709987369778 76.91265658549247 127.96424989474815 77.30804157262858 127.25 C 77.74897252734868 126.45347282206842 77.36513804910422 126.03128021291316 76.25 126.086224056302 C 75.2875 126.1336472872681 73.4875 125.9086472872681 72.25 125.586224056302 C 71.0125 125.2638008253359 69.9665604538264 125.3375 69.92568989739202 125.75 C 69.88481934095763 126.1625 69.65981934095763 127.5125 69.42568989739202 128.75 C 69.18189980723363 130.03856171174587 69.42730590589073 130.78634704705465 70 130.5 C 70.55 130.225 70.775 130.675 70.5 131.5 C 70.225 132.325 69.55 133 69 133 C 68.45 133 68.1125 133.91038337181843 68.25 135.02307415959655 C 68.3875 136.13576494737464 69.175 137.42951494737463 70 137.89807415959655 C 71.13757513770125 138.544160596402 71.1979792814177 138.90101035929115 70.25 139.375 C 69.5625 139.71875 68.83229345894085 139.4375 68.62731879764634 138.75 C 68.42234413635182 138.0625 68.15437296008619 137.05 68.03182729483382 136.5 C 67.90928162958144 135.95 67.2894881706406 135.12824105315119 66.65450849718748 134.67386900700262 C 65.7955653956423 134.0592355771609 65.82001214841893 133.73922342874198 66.75 133.42386900700262 C 67.4375 133.19074105315119 68 131.875 68 130.5 C 68 129.125 68.675 126.65 69.5 125 C 70.325 123.35 71.45 122.225 72 122.5 C 72.55 122.775 73 122.55 73 122 C 73 121.45 72.325 121 71.5 121 C 70.675 121 68.86203542923035 120.4375 67.47118984273409 119.75 C 66.08034425623784 119.0625 64.92371588806317 117.825 64.90090458012372 117 C 64.874662681052 116.05092830311976 64.56994275893825 116.23457107082635 64.0712505569372 117.5 C 63.369272319714796 119.28126621083538 63.21040247966495 119.17189931625309 62.61861865533111 116.5 C 62.25316951426088 114.85 62.678526922613216 109.675 63.56385734055851 105 C 64.44918775850383 100.325 65.35950048240124 95.2625 65.586774504775 93.75 C 65.81404852714874 92.2375 66.5625 90.95231683419196 67.25 90.89403740931547 L 68.5 90.78807481863093 L 71.25 90.89403740931547 C 72.7625 90.95231683419196 74.225 90.55 74.5 90 C 74.775 89.45 75.225 89 75.5 89 Z " class="even" fill="#ffffff"></path><path d="M 10.812917218802584 94.77633226887045 C 10.985021689144006 95.7243495209917 10.620861145605398 96.95 10.003671566494567 97.5 C 9.206761705808503 98.21015525571379 9.043603108470363 97.99277169749912 9.440754347691984 96.75 C 9.769443426557547 95.72146113583386 9.484670617261523 94.99368710188809 8.75 94.98468722548293 C 7.918547003970108 94.97450174368315 8.00225640476413 94.64848117430182 9 94.01101949435338 C 10.106452733112825 93.30410318699596 10.582098477481129 93.50489435414599 10.812917218802584 94.77633226887045 Z " class="even" fill="#ffffff"></path><path d="M 72.75 93.04003763065519 C 72.6125 93.06205832751554 71.2625 93.73705832751554 69.75 94.54003763065519 C 68.2375 95.34301693379484 67.21458163560955 96.3375 67.47684807913232 96.75 C 67.7391145226551 97.1625 68.6391145226551 96.9375 69.47684807913232 96.25 C 70.31458163560954 95.5625 71.45 95.225 72 95.5 C 72.55 95.775 73 95.325 73 94.5 C 73 93.675 72.8875 93.01801693379484 72.75 93.04003763065519 Z " class="odd" fill="#000058"></path><path d="M 177.5496031746032 93 C 177.21676587301587 92.725 176.99247076023394 93.4 177.05116959064327 94.5 C 177.12550503410998 95.89302584469115 177.30916288864293 96.04476938351836 177.656328320802 95 C 177.93046679197994 94.175 177.88244047619048 93.275 177.5496031746032 93 Z " class="odd" fill="#000058"></path><path d="M 48.25 95.01531277451707 C 48.6625 95.00689074853268 49.8983178728031 96.4625 50.996261939562444 98.25 C 52.09420600632179 100.0375 52.98528148868299 103.075 52.97642967814289 105 L 52.960335477160896 108.5 L 50.23016773858045 108.22862132097214 L 47.5 107.95724264194426 L 49.75 108.97862132097214 C 51.04302810329087 109.5655863592322 51.89366978925454 110.74431147521821 51.75 111.75 C 51.6125 112.7125 52.0625 113.3875 52.75 113.25 C 53.50517070867786 113.09896585826444 54.00540538980546 114.08862444090872 54.013654683292444 115.75 C 54.021164759103286 117.2625 54.24616475910329 119.5125 54.513654683292444 120.75 C 54.936411718822974 122.70581883338183 54.5750716482182 123.01516685004981 51.75 123.11600135047522 C 49.645609023778995 123.19111279514276 49.204990168479384 123.40157515449931 50.5 123.71306601539246 C 51.6 123.97765083833556 52.77940127913121 124.4879502306217 53.12089173140269 124.84706466491724 C 53.46238218367417 125.20617909921276 53.98973249376127 126.625 54.29278130937402 128 L 54.84377915594267 130.5 L 51.171889577971335 129.31771009845033 C 49.1523503100871 128.667450652598 46.375 128.35534201192067 45 128.6241353413896 C 43.625 128.89292867085854 40.475 129.61672606240498 38 130.2325739892706 C 35.525 130.84842191613623 31.924999999999997 132.31720944136657 30 133.49654626756023 C 28.075 134.6758830937539 25.8295365877844 136.0591161579048 25.010081306187555 136.57039752122893 C 23.840773753313545 137.29996162705 23.73318025097348 137.18795477882855 24.510081306187555 136.04988816989533 C 25.25831598912149 134.95381434868239 25.1337820281769 134.7300144770127 24 135.13322150322864 C 23.175 135.42661634311958 22.5 136.07916666666668 22.5 136.58333333333334 C 22.5 137.0875 22.1625 137.6125 21.75 137.75 C 21.3375 137.8875 20.2125 137.96447368421053 19.25 137.92105263157896 C 17.874923193016063 137.85901909141427 17.82136273687091 137.7286223456241 19 137.31240982317578 L 20.5 136.78271438319368 L 19 135.96252381077903 C 17.755403238720678 135.28198612407297 17.925672064534464 134.79534285209405 20 133.10443590388795 C 21.375 131.9835923699259 23.0625 131.05156739129393 23.75 131.03326928470574 C 24.4375 131.01497117811758 25.3375 130.3906930274164 25.75 129.64598450536977 C 26.1625 128.90127598332313 27.625 127.69813410492911 29 126.97233588671637 C 30.375 126.24653766850362 32.805238170711995 125.39334464108722 34.400529268248874 125.0763513813466 C 36.20987038617908 124.71682518588233 37.4636292194848 123.7475937669283 37.733193933152705 122.5 C 37.97086840131292 121.4 38.24063023060093 119.7125 38.332664664903824 118.75 C 38.42469909920672 117.7875 38.8375 117 39.25 117 C 39.6625 117 40 117.45 40 118 C 40 118.55 39.55 119.9 39 121 L 38 123 L 39 123 C 39.55 123 40.45745168896094 121.5375 41.01655930880208 119.75 C 41.57566692864322 117.9625 42.025666928643226 115.9375 42.01655930880208 115.25 C 42.007451688960934 114.5625 43.35 112.65 45 111 L 48 108 L 46 105 C 44.9 103.35 44.03162836817467 101.2125 44.070285262610376 100.25 L 44.14057052522075 98.5 L 44.820285262610376 100.26807586286924 L 45.5 102.03615172573848 L 47 100.1971819111929 C 47.825 99.18574851319282 48.6125 97.82761437490166 48.75 97.17910604832366 C 48.8875 96.53059772174565 48.55 96 48 96 C 47.45 96 47 96.45 47 97 C 47 97.55 46.4375 97.71875 45.75 97.375 C 44.80176989169951 96.90088494584975 44.86212387003941 96.54245782325646 46 95.89031277451707 C 46.825 95.41748480050146 47.8375 95.02373480050144 48.25 95.01531277451707 Z " class="even" fill="#ffffff"></path><path d="M 103 96 C 102.45 96 102.225 96.45 102.5 97 C 102.775 97.55 103.225 98 103.5 98 C 103.775 98 104 97.55 104 97 C 104 96.45 103.55 96 103 96 Z " class="odd" fill="#000058"></path><path d="M 12.848415211462129 102.67641159314684 C 13.5900435777663 105.32938521691608 14.428030537534381 108.85 14.710608455391197 110.5 C 15.094198204250706 112.73981792497632 14.625820833932503 114.1422033890701 12.862193243929068 116.03440620413248 C 11.56298695976808 117.42832961640535 10.827053267363763 118.10332961640535 11.22678503858614 117.53440620413248 C 11.626516809808518 116.96548279185961 11.401516809808518 115.89012598901667 10.72678503858614 115.14472442003702 C 10.052053267363764 114.39932285105738 9.95 113.8901123247416 10.5 114.0131454726686 C 11.05 114.1361786205956 12.175 114.17666188304626 13 114.10310827811452 L 14.5 113.96937445096587 L 13 113 C 12 112.35375036602275 11.916666666666668 112.02552129086178 12.75 112.01531277451707 C 13.684630489159211 112.00386334576724 13.621556586991055 111.36926097831842 12.5 109.5 C 11.376792302211165 107.62798717035194 11.313993585175972 106.99201115619657 12.25 106.96819662812953 C 13.012593192827008 106.94879420021165 12.832819916327525 106.46138739303866 11.788954745158904 105.71819662812953 C 10.847879854996302 105.04818848265829 10.047879854996303 103.375 10.011176967381127 102 C 9.974474079765951 100.625 10.294444444444444 99.12938521691608 10.722222222222221 98.67641159314684 C 11.15 98.22343796937758 12.106786845157957 100.02343796937758 12.848415211462129 102.67641159314684 Z " class="even" fill="#ffffff"></path><path d="M 112.94035546572461 99 C 113.55643885150663 100.01582355567125 114.51984901701849 100.25791177783562 115.92504269120755 99.75 C 117.26601885431845 99.26529984830461 118.15284380785666 99.44216641384101 118.43208790591117 100.25 C 118.66973625416232 100.9375 117.88223625416232 102.93650748760112 116.68208790591117 104.69223886133582 C 115.48193955766003 106.44797023507053 112.7 108.6002467654656 110.5 109.47507559554711 L 106.5 111.06567346842256 L 108.75 109.03283673421129 C 109.9875 107.91477653039507 110.775 106.325 110.5 105.5 C 110.225 104.675 110.45 104 111 104 C 111.55 104 112.00689074853268 102.5375 112.01531277451707 100.75 C 112.026564719296 98.36187494200882 112.2718789087853 97.8977884347733 112.94035546572461 99 Z " class="even" fill="#ffffff"></path><path d="M 158.20547464893014 98.74204553773652 C 157.4934857058417 98.05892049198144 156.91094929786024 97.725 156.91094929786024 98 C 156.91094929786024 98.275 157.60598570584168 99.0625 158.45547464893014 99.75 L 160 101 L 160.6603253301754 99.75 C 161.02577758343392 99.05819658780649 160.91413826587262 98.83136582972925 160.4103253301754 99.24204553773652 C 159.90964639857893 99.65017058349162 158.91746359201855 99.4251705834916 158.20547464893014 98.74204553773652 Z " class="odd" fill="#000058"></path><path d="M 50.25 98.95547464893012 C 49.8375 98.93098570584169 48.97530421262925 99.49348570584169 48.33400936139833 100.20547464893012 C 47.69271451016742 100.91746359201855 47.017714510167416 102.11343387589433 46.83400936139833 102.86318639087628 C 46.64405235130644 103.63845451487357 47.47038534813088 104.39319867453092 48.75 104.61318639087628 C 50.6692919131386 104.94314560504655 51 104.5590558841848 51 102 C 51 100.35 50.6625 98.97996359201855 50.25 98.95547464893012 Z " class="odd" fill="#000058"></path><path d="M 49.25 99.99722957343117 C 49.3875 99.99570583881831 49.576058634666914 100.78320583881832 49.669019188148695 101.74722957343117 C 49.761979741630476 102.71125330804402 49.24385522314078 103.5 48.5176313692827 103.5 C 47.58338171731975 103.5 47.4608381829763 102.98820676673898 48.098612181134 101.75 C 48.5943754815103 100.7875 49.1125 99.99875330804403 49.25 99.99722957343117 Z " class="even" fill="#ffffff"></path><path d="M 167.5 102 C 167.775 102 167.8875 102.7875 167.75 103.75 C 167.574892640308 104.97575151784392 168.0991411224641 105.43037503775646 169.5 105.26758409785933 C 170.6 105.13975535168196 171.16607950801856 105.36475535168196 170.75795446226346 105.76758409785933 C 170.34982941650838 106.17041284403669 170.57482941650838 107.12950100381057 171.25795446226346 107.89889111957905 C 172.29941725183178 109.0718698900307 172.09626530977732 109.17152764474501 170 108.51599039992168 L 167.5 107.73419856068524 L 169.09789560711175 109.61709928034261 C 169.97673819102323 110.65269467615418 171.07403686053468 112.175 171.53633709491498 113 C 171.99863732929532 113.825 171.27958430609502 113.50946199943785 169.93844148780323 112.2988044431952 C 168.59729866951147 111.08814688695256 166.0375 108.95064688695257 164.25 107.5488044431952 C 162.4625 106.14696199943783 161.225 104.55 161.5 104 C 161.775 103.45 162.45 103.225 163 103.5 C 163.55 103.775 163.775 104.45 163.5 105 C 163.225 105.55 164.0125 106.23404755203018 165.25 106.52010567117819 C 167.01244097738615 106.9275081367139 167.33748032579538 106.7108152377744 166.75 105.52010567117819 C 166.3375 104.68404755203018 166.225 103.55 166.5 103 C 166.775 102.45 167.225 102 167.5 102 Z " class="even" fill="#ffffff"></path><path d="M 112.90906776915664 105.25 C 111.85908049612048 105.1125 111 105.225 111 105.5 C 111 105.775 111.675 106.225 112.5 106.5 C 113.325 106.775 114.18408049612049 106.6625 114.40906776915664 106.25 C 114.63405504219278 105.8375 113.95905504219279 105.3875 112.90906776915664 105.25 Z " class="odd" fill="#000058"></path><path d="M 175 105 C 175.55 105 175.775 105.45 175.5 106 C 175.225 106.55 174.55 107 174 107 C 173.45 107 173.225 106.55 173.5 106 C 173.775 105.45 174.45 105 175 105 Z " class="even" fill="#ffffff"></path><path d="M 3 107 C 3.55 107 4 107.45 4 108 C 4 108.55 3.55 109 3 109 C 2.45 109 2 108.55 2 108 C 2 107.45 2.45 107 3 107 Z " class="even" fill="#ffffff"></path><path d="M 8 107 C 8.55 107 9 107.225 9 107.5 C 9 107.775 8.55 108.225 8 108.5 C 7.449999999999999 108.775 7 108.55 7 108 C 7 107.45 7.449999999999999 107 8 107 Z " class="even" fill="#ffffff"></path><path d="M 78.75 110.9711898427341 C 78.6125 110.95534425623785 77.9375 112.08034425623785 77.25 113.4711898427341 C 76.5625 114.86203542923035 76.45 115.775 77 115.5 C 77.55 115.225 78.43631609134466 115.7875 78.96959131409926 116.75 C 79.50286653685384 117.7125 79.95286653685385 117.9375 79.96959131409926 117.25 C 79.98631609134466 116.5625 79.55 115.775 79 115.5 C 78.45 115.225 78.225 114.1 78.5 113 C 78.775 111.9 78.8875 110.98703542923035 78.75 110.9711898427341 Z " class="odd" fill="#000058"></path><path d="M 63.66228070175438 112.5 C 63.38486842105263 111.95 63.15789473684211 112.625 63.15789473684211 114 C 63.15789473684211 115.375 63.38486842105263 115.825 63.66228070175438 115 L 64.16666666666667 113.5 L 63.66228070175438 112.5 Z " class="odd" fill="#000058"></path><path d="M 175 112.93880798226346 C 175.275 112.95413025868523 174.94794673263624 113.53666666666666 174.27321496141386 114.23333333333333 L 173.0464299228277 115.5 L 174.27321496141386 117 L 175.5 118.5 L 173.73766881628478 117 C 172.31503367334386 115.78913070702593 172.2186567710019 115.25047531332145 173.23766881628478 114.20547464893012 C 173.93195096732816 113.49348570584169 174.725 112.92348570584168 175 112.93880798226346 Z " class="even" fill="#ffffff"></path><path d="M 39 114 C 39.55 114 40.225 114.45 40.5 115 C 40.775 115.55 40.325 116 39.5 116 C 38.675 116 38 115.55 38 115 C 38 114.45 38.45 114 39 114 Z " class="even" fill="#ffffff"></path><path d="M 61.66228070175438 117.5 L 62.166666666666664 118.5 L 61.66228070175438 120 C 61.38486842105263 120.825 61.1578947368421 120.375 61.1578947368421 119 C 61.1578947368421 117.625 61.38486842105263 116.95 61.66228070175438 117.5 Z " class="even" fill="#ffffff"></path><path d="M 15.61024947025166 118.43406905421654 C 15.67088667889007 118.47033107439745 15.48261953002056 121.2 15.191878028319408 124.5 C 14.827164774588715 128.63960074591762 14.327880289031588 130.22344138587707 13.581628558067749 129.6080668941915 C 12.986732851130487 129.1175036859968 12.3875 126.53000368599682 12.25 123.8580668941915 C 12.046300142075122 119.89971674964606 12.324100994525857 118.94148940929719 13.75 118.68406905421654 C 14.7125 118.51030703403565 15.549612261613248 118.39780703403564 15.61024947025166 118.43406905421654 Z " class="even" fill="#ffffff"></path><path d="M 62.5 122 C 62.775 122 62.76842715150471 123.2375 62.48539367001046 124.75 C 62.20236018851621 126.2625 61.73986018851621 127.725 61.45761589223268 128 C 61.17537159594915 128.275 60.956944444444446 127.7125 60.97222222222222 126.75 C 60.9875 125.7875 61.225 124.325 61.5 123.5 C 61.775 122.675 62.225 122 62.5 122 Z " class="even" fill="#ffffff"></path><path d="M 92.63011140642189 122.5 C 92.37039223815302 121.95 92.12236842105264 122.2875 92.07894736842105 123.25 C 92.03552631578947 124.2125 91.6625 125.00031778935612 91.25 125.00070619856913 C 90.8375 125.00109460778216 90.44610582638167 126.23859460778216 90.38023516973703 127.75070619856913 L 90.26047033947405 130.5 L 91.68139920773785 127 C 92.46291008528296 125.075 92.88983057469076 123.05 92.63011140642189 122.5 Z " class="odd" fill="#000058"></path><path d="M 74 123 C 73.45 123 73 123.45 73 124 C 73 124.55 73.45 124.775 74 124.5 C 74.55 124.225 75 123.775 75 123.5 C 75 123.225 74.55 123 74 123 Z " class="odd" fill="#000058"></path><path d="M 55.66228070175438 124.5 L 56.166666666666664 125.5 L 55.66228070175438 127 C 55.38486842105263 127.825 55.1578947368421 127.375 55.1578947368421 126 C 55.1578947368421 124.625 55.38486842105263 123.95 55.66228070175438 124.5 Z " class="even" fill="#ffffff"></path><path d="M 30.113838729141186 130.5 C 29.056268081207314 130.5 28.485511829359417 130.92056540204277 28.84549150281253 131.43458978231723 C 29.23153621967483 131.9858331190309 28.577103645976635 132.08837715836682 27.25 131.68458978231723 C 25.960273478455168 131.2921748495914 25 131.42678821264676 25 132 C 25 132.55 24.4375 132.74956471322326 23.75 132.44347714049613 C 23.0625 132.137389567769 21.825 132.60092747492587 21 133.4735613786225 L 19.5 135.0601684762527 L 22.652569091033236 134.78008423812634 C 24.38648209110152 134.62603790715687 25.623982091101517 134.1625 25.402569091033236 133.75 C 25.181156090964958 133.3375 25.7875 133.00764245635256 26.75 133.016983236339 C 27.7125 133.02632401632542 29.295756251847898 132.46382401632542 30.26834722632866 131.766983236339 L 32.03669445265732 130.5 L 30.113838729141186 130.5 Z " class="odd" fill="#000058"></path><path d="M 48 130.08920836128812 C 50.89960547664458 130.05227309542138 52.27193581574268 130.8556188532952 56 134.77231262553858 C 58.475 137.37254068149235 62.278372701838855 142.2 64.45193933741967 145.5 C 66.6255059730005 148.8 71.27893545874294 157.125 74.79289375018062 164 C 78.30685204161831 170.875 80.35347933977947 175.50519991392918 79.34095441276094 174.28933314206486 C 78.32842948574242 173.07346637020055 76.70164203194324 172.17346637020054 75.72587118209609 172.28933314206486 C 74.75010033224892 172.40519991392918 73.5194910807816 173.175 72.99118395661314 174 C 72.35196509283509 174.99819884777617 72.02550290376986 175.08183237314682 72.01531277451707 174.25 C 72.00470892477576 173.3843951312118 71.00057265884938 173.1849050424966 68.75 173.60128571970233 C 65.9879925434235 174.1122874555026 64.89939379270953 173.65989259852674 61.5 170.58836409828405 C 59.3 168.6005500606677 57.38383928155899 167.09247148680163 57.2418650701311 167.2370783785817 C 57.0998908587032 167.38168527036177 57.87750795848228 169.525 58.96990306964018 172 C 60.062298180798074 174.475 60.965958899239084 177.2875 60.978037999509084 178.25 C 60.99413499408538 179.53265822233132 60.19884266685368 180 58 180 C 56.35 180 55 179.55 55 179 C 55 178.45 54.55 178.225 54 178.5 C 53.37777777777778 178.8111111111111 53.56666666666666 180.13333333333333 54.5 182 C 55.325 183.65 56.274757411878696 187.3625 56.6105720263971 190.25 L 57.2211440527942 195.5 L 49.3605720263971 195.13797335717982 C 43.39821884110897 194.86337111452758 40.65479866839582 195.1899872039618 38 196.49049880913347 C 36.075 197.43350246125908 33.825 197.99217741879707 33 197.73199871477345 C 32.175 197.4718200107498 30.715030967704656 195.06318355737068 29.755624372677012 192.37947326281977 C 28.796217777649368 189.6957629682689 27.079267456161126 183.225 25.940179213814247 178 C 24.80109097146737 172.775 23.619285349853396 166.7 23.31394449911652 164.5 C 23.008603648379644 162.3 22.176112536549788 159.6 21.46396425060572 158.5 C 20.751815964661652 157.4 20.384292531842902 155.6 20.647245511008492 154.5 C 21.027274600728155 152.9102404923567 20.796249764572863 153.01280061544588 19.52095573484267 155 L 17.916569632921227 157.5 L 18.586595513028826 155 C 18.955109747088006 153.625 20.098881579680732 150.8125 21.128310696568214 148.75 C 22.157739813455695 146.6875 23.45 144.775 24 144.5 C 24.55 144.225 25 143.55 25 143 C 25 142.45 24.1 142.225 23 142.5 C 21.9 142.775 20.994615508232027 142.6625 20.988034462737836 142.25 C 20.98145341724365 141.8375 22.21895341724365 140.7721499136205 23.738034462737836 139.8825553636011 C 25.257115508232026 138.99296081358173 27.175 138.52051113712884 28 138.8326671937058 C 28.99413971189137 139.20882080843376 29.247069855945686 138.9954977161165 28.75 138.20011183010467 C 28.260471693803296 137.41679354818766 29.476006264885353 136.24819175319507 32.25 134.8352496700486 C 34.5875 133.64463698857531 38.3 132.0997400696626 40.5 131.4021454057981 C 42.7 130.70455074193362 46.075 130.11372907190412 48 130.08920836128812 Z " class="even" fill="#ffffff"></path><path d="M 56 130.93481052890778 C 56.275 130.93481052890778 57.4 131.86414579089927 58.5 133 C 59.6 134.13585420910073 60.275 135.06518947109222 60 135.06518947109222 C 59.725 135.06518947109222 58.6 134.13585420910073 57.5 133 C 56.4 131.86414579089927 55.725 130.93481052890778 56 130.93481052890778 Z " class="even" fill="#ffffff"></path><path d="M 12.641775066738532 134.5 C 12.907909248181568 135.05 12.924583540105942 136.4 12.6788290487927 137.5 C 12.395536629183596 138.76802020953838 12.21844131794055 138.40203031430755 12.194948718896272 136.5 C 12.17456902876648 134.85 12.375640885295496 133.95 12.641775066738532 134.5 Z " class="even" fill="#ffffff"></path><path d="M 16.5 134 C 16.775 134 16.94668282171862 134.5625 16.881517381596936 135.25 L 16.76303476319387 136.5 L 16.881517381596936 137.75 C 16.94668282171862 138.4375 17.616789585674542 139.5625 18.370643523721206 140.25 C 19.124497461767874 140.9375 19.883430914584117 142.625 20.05716230775731 144 C 20.230893700930498 145.375 20.064104115255954 147.5125 19.6865187840361 148.75 L 19 151 L 15.75 147.82692307692307 C 13.962499999999999 146.08173076923075 12.44375 144.16923076923075 12.375 143.57692307692307 C 12.30625 142.98461538461538 12.186859251467322 142.275 12.109687225482938 142 C 12.032515199498555 141.725 11.533155948031233 142.175 11 143 C 10.466844051968767 143.825 10.011234800501445 144.05 9.987534996739281 143.5 C 9.963835192977118 142.95 10.29444444444444 142.16607950801856 10.72222222222222 141.75795446226348 C 11.149999999999999 141.3498294165084 12.146753862225133 141.5748294165084 12.937230804944742 142.25795446226348 C 14.128137108384259 143.28712796380572 14.256678311017346 143.20007052718947 13.687230804944742 141.75 C 13.202963195152297 140.51683595811028 13.362808568795046 140.22150112490442 14.22846521304898 140.75 C 15.100287327842047 141.28226300521115 15.24544532436795 140.99194701215933 14.72846521304898 139.75 C 14.32780934587204 138.7875 14.45 137.1 15 136 C 15.55 134.9 16.225 134 16.5 134 Z " class="even" fill="#ffffff"></path><path d="M 54 135 C 52.9 134.45 52 134.225 52 134.5 C 52 134.775 52.9 135.45 54 136 C 55.1 136.55 56 136.775 56 136.5 C 56 136.225 55.1 135.55 54 135 Z " class="odd" fill="#000058"></path><path d="M 103 134 C 103.55 134 104.225 134.675 104.5 135.5 C 104.775 136.325 105 137.675 105 138.5 C 105 139.325 104.55 139.775 104 139.5 C 103.45 139.225 102.57852383518859 140.0125 102.06338630041907 141.25 C 101.51052712234596 142.57811761265194 101.09397285843313 142.88541174176797 101.04671963375242 142 C 101.00269050185526 141.175 101.53666666666666 139.88125 102.23333333333333 139.125 C 103.24217579402764 138.0298749604305 103.24556821779044 137.67367046533712 102.25 137.375 C 101.5625 137.16875 101.225 136.325 101.5 135.5 C 101.775 134.675 102.45 134 103 134 Z " class="even" fill="#ffffff"></path><path d="M 145.25 134.98333333333335 C 146.4875 134.97416666666666 148.07 135.53666666666666 148.76666666666665 136.23333333333335 C 149.46333333333334 136.93 150.02931274602787 139.075 150.02439869487674 141 C 150.0194846437256 142.925 149.3369846437256 145.5125 148.50773202821006 146.75 C 147.38078635977544 148.43174961235528 146.17919388451318 148.93686106803946 143.75 148.75 C 141.78030303030303 148.59848484848484 140.59848484848484 148.00757575757575 140.75 147.25 C 140.8875 146.5625 140.55 146 140 146 C 139.45 146 139 144.425 139 142.5 C 139 140.33333333333334 139.76190476190476 138.23809523809524 141 137 C 142.1 135.9 144.0125 134.9925 145.25 134.98333333333335 Z " class="even" fill="#ffffff"></path><path d="M 4 137 C 4.55 137 4.775 137.675 4.5 138.5 C 4.225 139.325 3.7750000000000004 140 3.5 140 C 3.2249999999999996 140 3 139.325 3 138.5 C 3 137.675 3.45 137 4 137 Z " class="even" fill="#ffffff"></path><path d="M 63 138 C 63.55 138 64.0041328032638 138.3375 64.0091840072529 138.75 C 64.014235211242 139.1625 67.18096962200595 142.875 71.04637158672834 147 C 74.91177355145074 151.125 78.05764074818694 154.95 78.03718757947544 155.5 C 78.01673441076395 156.05 78.675 156.5 79.5 156.5 C 80.325 156.5 81.00347941269453 156.275 81.00773202821006 156 C 81.0119846437256 155.725 80.3369846437256 154.4875 79.50773202821006 153.25 C 78.67847941269453 152.0125 78.45 151 79 151 C 79.55 151 79.325 149.875 78.5 148.5 C 77.675 147.125 77.45 146.225 78 146.5 C 78.55 146.775 79.225 146.325 79.5 145.5 C 79.775 144.675 81.0125 144.0075 82.25 144.01666666666665 C 83.4875 144.02583333333334 85.05499999999999 143.46333333333334 85.73333333333332 142.76666666666665 C 86.41166666666666 142.07 87.20840660488713 141.725 87.50386652937884 142 C 87.79932645387055 142.275 87.17277614187341 145.875 86.11153250271855 150 C 85.0502888635637 154.125 84.13415817681053 156.6 84.07568653215597 155.5 C 83.9880641741486 153.85160111576232 83.80786573658708 153.76370083682176 83.05067023110799 155 C 82.54538291018615 155.825 82.43523707093442 156.95 82.8059016994375 157.5 C 83.20532688222741 158.0926755175471 82.97478814738405 158.1945066381603 82.23991869381244 157.75 C 81.5579634122156 157.3375 81 157.225 81 157.5 C 81 157.775 81.85483342521502 159.6875 82.89962983381115 161.75 C 83.94442624240727 163.8125 85.05881121927366 167.3 85.37604089351422 169.5 C 85.72631208199834 171.92914417294 85.63929413608456 172.71457208646999 85.15445990711228 171.5 C 84.59335966991115 170.09437175617575 84.15459115271464 169.87148234760986 83.6780488474092 170.75 C 83.30512198133414 171.4375 83.29101697856117 172.5625 83.6467043968026 173.25 C 84.09011450266485 174.10705715790422 83.9538741673246 174.18564572632337 83.21330696356017 173.5 C 82.6192509570354 172.95 78.90482511278194 166.65 74.9590273096636 159.5 C 71.01322950654526 152.35 66.48325835150435 144.5875 64.89242474290603 142.25 C 63.301591134307714 139.9125 62.45 138 63 138 Z " class="even" fill="#ffffff"></path><path d="M 144.25 138.25 C 142.45 138.05 142 138.5 142 140.5 C 142 141.875 142.45 143 143 143 C 143.55 143 143.775 142.1 143.5 141 C 143.16666666666666 139.66666666666666 143.5 139 144.5 139 C 145.5751112506313 139 145.92918520843855 139.91413291510474 145.75 142.2271962359428 C 145.57219387876205 144.52245721668967 144.77806121237953 145.81768996282656 143 146.7124544335458 C 141.58262614582424 147.42571208610187 141.14957568749455 147.99101550465795 142 148.01785293314907 C 142.825 148.0438880290178 144.30226195958826 147.26302184009648 145.2828043546406 146.28259473554613 C 146.38400459669774 145.18152397073476 146.9574865753646 143.35303604266625 146.7828043546406 141.5 C 146.5689628111834 139.2315602824191 145.9513297881857 138.43903664313174 144.25 138.25 Z " class="odd" fill="#000058"></path><path d="M 57.25 138.95547464893014 C 57.1125 138.97996359201855 56.97996359201855 139.1125 56.95547464893012 139.25 C 56.930985705841685 139.3875 57.71848570584168 140.175 58.70547464893012 141 L 60.5 142.5 L 59 140.70547464893014 C 58.175 139.7184857058417 57.3875 138.9309857058417 57.25 138.95547464893014 Z " class="odd" fill="#000058"></path><path d="M 26.25 139.97222222222223 C 25.0125 139.9875 23.775 140.45 23.5 141 C 23.20669446229998 141.58661107540004 23.930125080349907 141.78406614673116 25.25 141.4776496407643 C 26.4875 141.19035694318467 27.725 140.72785694318466 28 140.44987186298653 C 28.275 140.1718867827884 27.4875 139.95694444444445 26.25 139.97222222222223 Z " class="odd" fill="#000058"></path><path d="M 103.61600135047522 142.25 C 103.82720060771385 143.2125 103.4375 144.69503640798143 102.75 145.54452535106986 C 102.0625 146.39401429415832 101.05 147.06212354562564 100.5 147.02921257655282 C 99.95 146.99630160748 100.175 146.57515446327997 101 146.0933300338861 C 101.825 145.61150560449224 102.05 145.01714910718516 101.5 144.77253781764819 C 100.95 144.52792652811124 101.0625 144.4790372643298 101.75 144.66389500924504 C 102.4581333115041 144.85430072133812 103.05028581411445 144.02463996070736 103.11600135047522 142.75 C 103.19819157729738 141.1558115738115 103.34392748258881 141.01007566852005 103.61600135047522 142.25 Z " class="even" fill="#ffffff"></path><path d="M 74 143 C 75.1 143 76 143.225 76 143.5 C 76 143.775 75.325 144.225 74.5 144.5 C 73.675 144.775 72.775 144.55 72.5 144 C 72.225 143.45 72.9 143 74 143 Z " class="even" fill="#ffffff"></path><path d="M 3.7342516087186937 144.25 C 4.688089993513975 144.3875 5.617790749043767 145.175 5.800253287673787 146 C 5.9827158263038065 146.825 5.314802602380395 147.8477569070341 4.316001678955093 148.27279312674244 C 3.3172007555297913 148.69782934645076 2.05 148.60168261698036 1.5 148.0591337279193 C 0.95 147.5165848388582 0.8374999999999999 146.3813279318241 1.25 145.53634060117685 C 1.6625 144.6913532705296 2.780413223923412 144.1125 3.7342516087186937 144.25 Z " class="even" fill="#ffffff"></path><path d="M 68 144.5 C 67.45 144.225 67.675 145.125 68.5 146.5 C 69.325 147.875 70.225 149 70.5 149 C 70.775 149 70.55 148.1 70 147 C 69.45 145.9 68.55 144.775 68 144.5 Z " class="odd" fill="#000058"></path><path d="M 85.75 144.01983226141954 C 85.3375 144.0089245176388 85 145.125 85 146.5 C 85 147.875 85.225 149 85.5 149 C 85.775 149 86.1125 147.8839245176388 86.25 146.51983226141954 C 86.3875 145.1557400052003 86.1625 144.0307400052003 85.75 144.01983226141954 Z " class="odd" fill="#000058"></path><path d="M 186.66228070175438 144.5 L 187.16666666666666 145.5 L 186.66228070175438 147 C 186.38486842105263 147.825 186.1578947368421 147.375 186.1578947368421 146 C 186.1578947368421 144.625 186.38486842105263 143.95 186.66228070175438 144.5 Z " class="even" fill="#ffffff"></path><path d="M 80 147 C 79.45 147 79.225 147.45 79.5 148 C 79.775 148.55 80.225 149 80.5 149 C 80.775 149 81 148.55 81 148 C 81 147.45 80.55 147 80 147 Z " class="odd" fill="#000058"></path><path d="M 30 148.08559803712745 C 29.175 148.0553631686761 27.825 148.46684405196876 27 149 C 26.175 149.53315594803124 25.95 149.9446368313239 26.5 149.91440196287255 C 27.05 149.88416709442123 28.4 149.47268621112858 29.5 149 C 30.818740244587215 148.43331788211208 30.98905518344041 148.12184525332432 30 148.08559803712745 Z " class="odd" fill="#000058"></path><path d="M 185.5496031746032 149 C 185.88244047619048 149.275 185.93046679197994 150.175 185.656328320802 151 C 185.30916288864293 152.04476938351837 185.12550503410998 151.89302584469115 185.05116959064327 150.5 C 184.99247076023394 149.4 185.21676587301587 148.725 185.5496031746032 149 Z " class="even" fill="#ffffff"></path><path d="M 82 150.50685043730982 C 81.725 150.2172848444969 81.1358394564614 150.7722848444969 80.69075434769198 151.74018377064317 C 80.03580349414224 153.16446468981854 80.13113597959844 153.26484653587474 81.19075434769198 152.26666666666665 C 81.91083945646139 151.58833333333334 82.275 150.79641603012277 82 150.50685043730982 Z " class="odd" fill="#000058"></path><path d="M 11.75 159.28208739388606 C 12.1625 159.43723546052337 13.750464570769658 160.22473546052336 15.278810157265905 161.03208739388606 C 16.807155743762152 161.83943932724873 18.044655743762153 162.8375 18.028810157265905 163.25 C 18.012964570769658 163.6625 17.4375 164.00347941269453 16.75 164.00773202821006 C 16.0625 164.01198464372558 14.4875 163.3369846437256 13.25 162.50773202821006 C 12.0125 161.67847941269451 11 160.55 11 160 C 11 159.45 11.3375 159.12693932724872 11.75 159.28208739388606 Z " class="even" fill="#ffffff"></path><path d="M 13 168 C 13.55 168 14 168.45 14 169 C 14 169.55 13.55 170 13 170 C 12.45 170 12 169.55 12 169 C 12 168.45 12.45 168 13 168 Z " class="even" fill="#ffffff"></path><path d="M 86.66228070175438 185.5 L 87.16666666666667 186.5 L 86.66228070175438 188 C 86.38486842105263 188.825 86.15789473684211 188.375 86.15789473684211 187 C 86.15789473684211 185.625 86.38486842105263 184.95 86.66228070175438 185.5 Z " class="even" fill="#ffffff"></path><path d="M 87.66228070175438 196.5 L 88.16666666666667 197.5 L 87.66228070175438 199 C 87.38486842105263 199.825 87.15789473684211 199.375 87.15789473684211 198 C 87.15789473684211 196.625 87.38486842105263 195.95 87.66228070175438 196.5 Z " class="even" fill="#ffffff"></path><path d="M 38.5 198.05116959064327 C 39.6 197.99247076023394 40.275 198.21676587301587 40 198.5496031746032 C 39.725 198.88244047619048 38.825 198.93046679197994 38 198.656328320802 C 36.955230616481636 198.30916288864293 37.10697415530885 198.12550503410998 38.5 198.05116959064327 Z " class="even" fill="#ffffff"></path><path d="M 164.75 210.95547464893014 C 165.4375 210.97996359201855 166.225 211.45 166.5 212 C 166.775 212.55 166.8875 213.23541836439045 166.75 213.5231519208677 C 166.6125 213.8108854773449 165.825 213.34084906936346 165 212.4786265697978 C 163.93678354759777 211.36743972474378 163.8639862896648 210.9239145917258 164.75 210.95547464893014 Z " class="even" fill="#ffffff"></path><path d="M 46.25 227.97222222222223 C 47.35526315789474 227.98976608187135 47.81578947368421 228.55263157894737 47.5 229.5 C 47.225 230.325 47.45 231 48 231 C 48.55 231 49.006890748532676 230.4375 49.015312774517064 229.75 C 49.02617537097082 228.86327332926723 49.244139368531165 228.82676233078155 49.765312774517064 229.624368018706 C 50.16939074853268 230.2427704289943 51.9625 231.0302704289943 53.75 231.374368018706 C 55.69416356386934 231.74862368099005 57 232.60269373975262 57 233.5 C 57 234.325 57.7875 235.2718444819139 58.75 235.6040988486975 C 60.00130039849072 236.03604692304205 60.304134055193124 235.82231852239522 59.8126816176017 234.8540988486975 C 59.43465650728263 234.10934448191387 59.659656507282634 232.93 60.3126816176017 232.23333333333335 C 61.23122681252748 231.25340192025342 61.21703757869728 230.9704394989507 60.25 230.98333333333335 C 59.5625 230.9925 59 230.55 59 230 C 59 229.45 60.125 229.225 61.5 229.5 C 62.875 229.775 64.225 229.55 64.5 229 C 64.775 228.45 65.5625 228.20915012361297 66.25 228.46477805247326 C 66.9375 228.72040598133353 68.175 230.31944733733084 69 232.01820328802285 C 69.825 233.71695923871482 71.2875 235.30780911510186 72.25 235.55342523554958 C 73.2125 235.7990413559973 74 236.45 74 237 C 74 237.55 73.55 238 73 238 C 72.45 238 71.775 237.55 71.5 237 C 71.20370370370371 236.40740740740742 70.38888888888889 236.61111111111111 69.5 237.5 C 68.675 238.325 68 239.675 68 240.5 C 68 241.325 67.55 242 67 242 C 66.45 242 65.775 240.875 65.5 239.5 C 65.225 238.125 65.3375 236.45994967645288 65.75 235.79988816989533 C 66.24407792832525 235.00928981419298 65.9881558566505 234.78180352825987 65 235.13322150322864 C 64.175 235.42661634311955 63.443749999999994 236.07916666666665 63.375 236.58333333333331 C 63.306250000000006 237.0875 63.193749999999994 238.5125 63.125 239.75 C 63.05401234567901 241.02777777777777 62.351851851851855 242 61.5 242 C 60.675 242 60.01466763099575 241.2125 60.03259473554611 240.25 C 60.05052184009647 239.2875 59.13585420910072 237.6 58 236.5 C 56.86414579089928 235.4 55.94947815990353 234.8375 55.96740526445389 235.25 C 55.98533236900425 235.6625 56.1125 236.2414135287969 56.25 236.53647450843758 C 56.3875 236.83153548807826 55.825 237.54079443492705 55 238.11260550143493 C 53.88537171041823 238.8851591875266 53.82114309201519 239.26116006880932 54.75 239.57613099299738 C 55.4375 239.80925894684881 56 240.45 56 241 C 56 241.6004355131635 54.99452028815667 241.50054439145438 53.48356086447002 240.75 C 51.699401045398936 239.86374777861687 51.33565326678205 239.28175133282988 52.23356086447002 238.75 C 53.22026866854564 238.16566015113153 53.16867969773696 237.79790144278377 52 237.08503090890073 C 50.74590067130147 236.3200561602824 50.827867561735296 236.10107231885553 52.5 235.74922421751674 C 53.83527775940068 235.46825667352687 53.170555518801365 235.08173926324997 50.5 234.5862800983959 C 48.3 234.17812151303602 45.9375 233.65423452415882 45.25 233.42208678977988 C 44.369019634042104 233.12460665015885 44.28712907812387 232.48337251234105 44.97260772746277 231.25 C 45.5075419775673 230.2875 45.620041977567304 229.15 45.22260772746277 228.72222222222223 C 44.82517347735825 228.29444444444445 45.2875 227.95694444444445 46.25 227.97222222222223 Z " class="even" fill="#ffffff"></path><path d="M 77 228 C 77.55 228 78.27347481420856 229.2375 78.60772180935234 230.75 L 79.2154436187047 233.5 L 80.10772180935234 231.25 C 80.59847481420856 230.0125 81.3375 229.00945231638542 81.75 229.0210051475231 C 82.1625 229.03255797866083 83.48792370082863 230.04505797866085 84.6953860018414 231.2710051475231 C 85.90284830285415 232.4969523163854 86.69034830285416 234.0625 86.4453860018414 234.75 C 86.20042370082862 235.4375 85.325 236 84.5 236 C 83.675 236 83.225 236.45 83.5 237 C 83.775 237.55 83.1 238 82 238 C 80.53333333333333 238 80 238.66666666666666 80 240.5 C 80 242.27777777777777 79.56666666666666 242.85555555555555 78.5 242.5 C 77.675 242.225 76.55 242 76 242 C 75.45 242 75 241.1 75 240 C 75 238.806095752562 75.70533378349174 237.95324590204524 76.75 237.88399864952478 C 78.15799268984742 237.79066776182106 78.10913450268278 237.67633356324433 76.5 237.29896774062405 C 74.8064363907369 236.90180204471494 74.72982729305268 236.6780836158837 76 235.83883809810192 C 77.11186425383937 235.10419226111242 77.17655354486614 234.73805887180038 76.25 234.42386900700262 C 75.5625 234.19074105315119 75 233.55 75 233 C 75 232.45 75.5411073166646 232.3375 76.2024607036991 232.75 C 77.0848215585772 233.30034700021614 77.21792355843311 232.76793900079247 76.7024607036991 230.75 C 76.28482257722277 229.11502619753392 76.40546407183052 228 77 228 Z " class="even" fill="#ffffff"></path><path d="M 127.25 229.0340155911308 C 128.2125 229.56530701600886 128.85037578919116 230.5625 128.66750175375813 231.25 C 128.4846277183251 231.9375 127.0221277183251 232.78425834520831 125.41750175375813 233.131685211574 C 123.81287578919115 233.4791120779397 123.0625 233.8166120779397 123.75 233.881685211574 C 124.4375 233.9467583452083 125 234.675 125 235.5 C 125 236.325 125.45 237 126 237 C 126.55 237 126.775 236.325 126.5 235.5 C 126.08518518518518 234.25555555555556 127.27777777777777 234 133.5 234 C 137.83333333333334 234 141 234.42222222222222 141 235 C 141 235.6153846153846 138.5 235.80769230769232 134.5 235.5 C 130.5 235.19230769230768 128 235.3846153846154 128 236 C 128 236.55 128.5625 237.18947368421053 129.25 237.42105263157896 C 129.9375 237.65263157894736 129.375 237.88452232748006 128 237.936365406096 C 126.00765062872193 238.01148506070376 125.80459037723315 238.22746696883405 127 239 C 128 239.64624963397725 128.08333333333334 239.97447870913825 127.25 239.98468722548296 C 126.5625 239.99310925146733 125.97147616481142 240.7875 125.93661369958093 241.75 C 125.89099541059815 243.00945204550578 125.56689334326056 242.79921720786538 124.78039928130744 241 C 124.17934381648752 239.625 123.7578676516761 238.1625 123.84378558172651 237.75 C 123.92970351177694 237.3375 123.4375 236.99310925146733 122.75 236.98468722548296 C 121.93275307081751 236.9746757711219 122.01930368498103 236.66387497312047 123 236.08694432381424 C 124.21237109237984 235.37372247234512 123.92474218475968 234.89027180804655 121.5 233.56572348252973 C 118.96634514241977 232.18168013138967 118.88862095201647 232.03903023299617 121 232.6480561665157 C 123.0207347805378 233.23093581917098 123.32744665737323 233.09415996989028 122.59990681766774 231.93458978231723 C 121.97317748958552 230.93569377022257 122.27688366091961 230.1306980307804 123.59990681766774 229.2840155911308 C 124.88687929398162 228.46040415965322 126.0646887455357 228.37973433886242 127.25 229.0340155911308 Z " class="even" fill="#ffffff"></path><path d="M 99.72828538643314 231.40165820212172 C 101.31445394421856 232.18349487174362 101.67466186044713 232.86020791622857 100.97828538643314 233.75 L 100 235 L 97.4711898427341 233.75 C 96.08034425623785 233.0625 94.95534425623785 232.1625 94.9711898427341 231.75 C 94.98703542923035 231.3375 95.5625 230.84324619095477 96.25 230.65165820212172 C 96.9375 230.4600702132887 98.50272842389491 230.79757021328868 99.72828538643314 231.40165820212172 Z " class="even" fill="#ffffff"></path><path d="M 111.19437766360743 232.37589375369993 C 111.5762853785915 232.99415218916496 112.1387853785915 233.1625 112.44437766360743 232.75 C 112.74996994862335 232.3375 113.7875 232.75535714285715 114.75 233.67857142857144 C 115.7125 234.6017857142857 116.5 235.61428571428573 116.5 235.92857142857144 C 116.5 236.24285714285713 115.26312457200757 236.5 113.75138793779462 236.5 C 112.23965130358165 236.5 111.00215130358164 236.1625 111.00138793779462 235.75 C 111.00062457200758 235.3375 109.7625 234.60133185387915 108.25 234.11407078639814 L 105.5 233.22814157279626 L 108 232.23996454009807 C 109.74585535490384 231.54987887444642 110.70946447867357 231.5908829898664 111.19437766360743 232.37589375369993 Z " class="even" fill="#ffffff"></path><path d="M 61.5 232 C 61.225 232 61.1125 232.8590804961205 61.25 233.90906776915665 C 61.3875 234.95905504219277 61.8375 235.63405504219278 62.25 235.40906776915665 C 62.6625 235.1840804961205 62.775 234.325 62.5 233.5 C 62.225 232.675 61.775 232 61.5 232 Z " class="odd" fill="#000058"></path><path d="M 92 232 C 92.55 232 92.775 232.45 92.5 233 C 92.225 233.55 91.55 234 91 234 C 90.45 234 90.225 233.55 90.5 233 C 90.775 232.45 91.45 232 92 232 Z " class="even" fill="#ffffff"></path><path d="M 81 233 C 80.45 233 79.775 233.45 79.5 234 L 79 235 L 79.5 235.5 L 80 236 L 81 235.5 C 81.55 235.225 82 234.55 82 234 C 82 233.45 81.55 233 81 233 Z " class="odd" fill="#000058"></path><path d="M 38.5 234 C 40.425 234 42 234.45 42 235 C 42 235.55 40.425 236 38.5 236 C 36.575 236 35 235.55 35 235 C 35 234.45 36.575 234 38.5 234 Z " class="even" fill="#ffffff"></path><path d="M 178.5 234.03873261825817 C 179.05 234.0287068543296 170.95 238.2297364774038 160.5 243.3743540028675 C 150.05 248.51897152833118 137.1125 255.71435813810297 131.75 259.36410202458256 C 126.3875 263.01384591106216 121.99043582909472 265.6625 121.97874628687717 265.25 C 121.96705674465962 264.8375 123.20455674465961 263.3000732216112 124.72874628687717 261.833496048025 C 126.25293582909472 260.36691887443874 131.1 256.9441449878858 135.5 254.22733185568518 C 139.9 251.51051872348455 145.975 248.02361732228255 149 246.4786620752363 C 152.025 244.93370682819 159.675 241.50679700273088 166 238.86330690754932 C 172.325 236.21981681236775 177.95 234.04875838218675 178.5 234.03873261825817 Z " class="even" fill="#ffffff"></path><path d="M 48.591842500454234 235 C 48.85190396629155 235.275 48.82512818516825 237.1875 48.53234076462468 239.25 C 48.23955334408111 241.3125 47.6625 242.9856884826583 47.25 242.96819662812953 C 46.8375 242.95070477360076 45.73002963532151 242.38820477360076 44.788954745158904 241.71819662812953 C 43.8478798549963 241.0481884826583 43.0528798549963 240.05 43.02228807849224 239.5 C 42.99169630198818 238.95 43.53666666666667 239.07 44.233333333333334 239.76666666666665 C 44.93 240.46333333333334 45.8375 241.02583333333334 46.25 241.01666666666665 C 46.6625 241.0075 47.2517757811233 239.5375 47.559501735829556 237.75 C 47.867227690535806 235.9625 48.33178103461692 234.725 48.591842500454234 235 Z " class="even" fill="#ffffff"></path><path d="M 95.75 237.60894243245232 C 96.4375 238.37402409460356 97 239.1125 97 239.25 C 97 239.3875 95.94144416520018 239.5 94.64765370044483 239.5 C 92.68566125495738 239.5 92.4782333274975 239.227679063937 93.39765370044483 237.85894243245232 C 94.33395037908979 236.46508212686587 94.68829112613842 236.42742390163818 95.75 237.60894243245232 Z " class="even" fill="#ffffff"></path><path d="M 106.25 236.95547464893014 C 106.3875 236.9309857058417 107.175 237.62602211382313 108 238.5 C 109.06512026524179 239.62835340356384 109.13760022103482 240.0761419202309 108.25 240.04452535106986 C 107.5625 240.02003640798145 106.775 239.325 106.5 238.5 C 106.225 237.675 106.1125 236.97996359201855 106.25 236.95547464893014 Z " class="even" fill="#ffffff"></path><path d="M 86.25 238.0996800253506 C 86.6625 238.04485601140777 87 238.675 87 239.5 C 87 240.325 86.6625 240.9938553925184 86.25 240.98634531670757 C 85.8375 240.9788352408967 84.375 240.66674688471798 83 240.29281563631037 L 80.5 239.61294063920565 L 83 238.90615034495346 C 84.375 238.51741568311473 85.8375 238.15450403929347 86.25 238.0996800253506 Z " class="even" fill="#ffffff"></path><path d="M 112.5 238 C 112.775 238 113 238.45 113 239 C 113 239.55 112.55 240 112 240 C 111.45 240 111.225 239.55 111.5 239 C 111.775 238.45 112.225 238 112.5 238 Z " class="even" fill="#ffffff"></path><path d="M 77.5 239 C 77.225 239 77 239.45 77 240 C 77 240.55 77.45 241 78 241 C 78.55 241 78.775 240.55 78.5 240 C 78.225 239.45 77.775 239 77.5 239 Z " class="odd" fill="#000058"></path><path d="M 150.5 250.000982132466 C 151.05 249.97706287517457 150.15 251.34149800942328 148.5 253.0330602085742 C 146.53817584381622 255.04430116856307 145.37294078798197 255.65725877464104 145.1328390432849 254.80431392169703 C 144.93090051709157 254.08694126476365 145.83090051709158 252.72250613051497 147.1328390432849 251.7722358455888 C 148.4347775694782 250.82196556066265 149.95 250.0249013897574 150.5 250.000982132466 Z " class="even" fill="#ffffff"></path><path d="M 94.66228070175438 251.5 L 95.16666666666667 252.5 L 94.66228070175438 254 C 94.38486842105263 254.825 94.15789473684211 254.375 94.15789473684211 253 C 94.15789473684211 251.625 94.38486842105263 250.95 94.66228070175438 251.5 Z " class="even" fill="#ffffff"></path><path d="M 18.5 254.18103713372653 C 17.4 254.27973977274345 14.3625 254.5043847699801 11.75 254.68024823869683 L 7 255 L 7 261 C 7 264.3333333333333 7.444444444444445 267 8 267 C 8.55 267 8.9925 265.9875 8.983333333333333 264.75 C 8.974166666666665 263.5125 9.536666666666665 261.93 10.233333333333333 261.23333333333335 C 10.93 260.53666666666663 12.625 259.9895119309433 14 260.01743392061474 C 15.375 260.04535591028616 18.6375 261.6278559102862 21.25 263.5341005872814 C 25.304838762422712 266.49276654209183 26.804923538247387 267 31.5 267 C 34.88226549001554 267 37.253455166070424 266.51869670227626 37.658252206220865 265.75 C 38.04083571124773 265.02348609429026 37.098560741525304 263.52157296315374 35.408252206220865 262.16367471954334 C 33.808713492799384 260.87869581529213 29.8 258.51655081805546 26.5 256.914463614573 C 23.2 255.3123764110905 19.6 254.08233449470958 18.5 254.18103713372653 Z " class="odd" fill="#000058"></path></g></svg>